<svg width="63" height="50" viewBox="0 0 63 50" fill="none" xmlns="http://www.w3.org/2000/svg">
<path fill-rule="evenodd" clip-rule="evenodd" d="M55.8599 3.67244H6.57175C4.757 3.67244 3.67244 4.78499 3.67244 6.6104V7.3449H58.7591V11.0173H3.67244V14.6899H58.7591V18.3623H3.67244V42.9676C3.67244 44.793 4.757 45.9056 6.57175 45.9056H31.2158H43.468H55.8599C57.6747 45.9056 58.7593 44.793 58.7593 42.9676V6.6104C58.7593 4.78499 57.6747 3.67244 55.8599 3.67244ZM6.57175 0C2.94227 0 0 2.95957 0 6.6104V42.9676C0 46.6185 2.94227 49.5782 6.57175 49.5782H55.8599C59.4894 49.5782 62.4317 46.6185 62.4317 42.9676V6.6104C62.4317 2.95957 59.4894 0 55.8599 0H6.57175Z" fill="#184E9E"/>
<path fill-rule="evenodd" clip-rule="evenodd" d="M9.1813 22.0357C8.1672 22.0357 7.34509 22.8579 7.34509 23.872C7.34509 24.8861 8.1672 25.7081 9.1813 25.7081H52.9446C53.9589 25.7081 54.7809 24.8861 54.7809 23.872C54.7809 22.8579 53.9589 22.0357 52.9446 22.0357H9.1813ZM7.34509 31.2169C7.34509 30.2026 8.1672 29.3806 9.1813 29.3806H37.4387C38.453 29.3806 39.275 30.2026 39.275 31.2169C39.275 32.231 38.453 33.053 37.4387 33.053H9.1813C8.1672 33.053 7.34509 32.231 7.34509 31.2169ZM7.34509 38.5617C7.34509 37.5476 8.1672 36.7256 9.1813 36.7256H20.4028C21.4168 36.7256 22.2388 37.5476 22.2388 38.5617C22.2388 39.5758 21.4168 40.398 20.4028 40.398H9.1813C8.1672 40.398 7.34509 39.5758 7.34509 38.5617Z" fill="#58B23B"/>
</svg>
