<svg width="41" height="49" viewBox="0 0 41 49" fill="none" xmlns="http://www.w3.org/2000/svg">
<path d="M5.2878 9.91463C5.41278 9.73876 5.46419 9.51944 5.43073 9.30489C5.39726 9.09036 5.28165 8.89817 5.10933 8.7706C4.93701 8.64305 4.7221 8.5906 4.51188 8.62475C4.30166 8.65891 4.11335 8.77689 3.98835 8.95275C-1.54632 16.7296 0.587335 25.1612 0.683596 25.5174C0.749498 25.712 0.88483 25.8741 1.06261 25.9714C1.2404 26.0687 1.44759 26.0941 1.64288 26.0424C1.83816 25.9909 2.00722 25.866 2.11635 25.6928C2.22548 25.5196 2.26666 25.3109 2.2317 25.1081C2.21966 25.0098 0.214357 17.0325 5.2878 9.91463ZM6.72362 7.43831C6.83331 7.43849 6.94187 7.41568 7.04258 7.37132C7.1433 7.32698 7.23403 7.26201 7.30917 7.18045C9.72761 4.79546 12.7306 3.11888 16.0029 2.32667C19.2752 1.53445 22.696 1.65585 25.9064 2.67808C26.1107 2.73941 26.3305 2.71544 26.5174 2.61143C26.7042 2.50741 26.843 2.33189 26.9031 2.12347C26.9633 1.91504 26.9397 1.69079 26.8378 1.50004C26.7359 1.30929 26.564 1.16767 26.3597 1.10634C14.1794 -2.53649 6.2303 5.973 6.13406 6.05895C6.02807 6.17558 5.95767 6.32119 5.93147 6.47798C5.90527 6.63477 5.92439 6.79596 5.9865 6.94185C6.04861 7.08774 6.15103 7.21199 6.28122 7.29944C6.41141 7.38687 6.56375 7.43371 6.71961 7.43422L6.72362 7.43831ZM31.0962 3.22246C30.9168 3.128 30.7092 3.10605 30.5146 3.16099C30.32 3.21593 30.1529 3.34372 30.0465 3.51887C29.9402 3.69401 29.9026 3.90362 29.941 4.10587C29.9794 4.30812 30.0912 4.48814 30.254 4.61001C30.3664 4.67959 41.3273 11.8916 38.1228 25.9308C38.0735 26.142 38.1082 26.3644 38.2195 26.5494C38.3308 26.7344 38.5096 26.8668 38.7164 26.9172C38.7769 26.9313 38.8389 26.9382 38.9009 26.9376C39.0824 26.9378 39.2585 26.8752 39.4005 26.7599C39.5427 26.6447 39.6423 26.4836 39.6831 26.3033C43.1281 11.1384 31.2286 3.30022 31.0962 3.22246Z" fill="#184E9E"/>
<path d="M18.3143 5.21577C18.2969 5.10953 18.259 5.00787 18.2029 4.9166C18.1469 4.82532 18.0737 4.74624 17.9876 4.68388C17.9017 4.62152 17.8042 4.57711 17.7014 4.55319C17.5985 4.52928 17.4919 4.52632 17.3878 4.54451C4.62606 6.73839 4.06056 19.7134 4.05654 19.8363C4.05279 19.9437 4.06985 20.051 4.10673 20.1518C4.14361 20.2525 4.19959 20.3449 4.27148 20.4235C4.34337 20.5022 4.42975 20.5657 4.52569 20.6103C4.62163 20.655 4.72524 20.6798 4.8306 20.6834H4.85867C5.06664 20.6836 5.26652 20.6013 5.41617 20.4539C5.5658 20.3065 5.65352 20.1056 5.6608 19.8935C5.6608 19.7748 6.18218 8.13003 17.6566 6.15308C17.8652 6.11696 18.0514 5.9982 18.1746 5.82263C18.2977 5.64708 18.348 5.42896 18.3143 5.21577ZM35.0226 16.4349C35.2263 16.3725 35.3973 16.2299 35.4981 16.0388C35.5989 15.8477 35.6212 15.6236 35.5601 15.4157C32.8169 6.04666 23.5963 4.36032 23.2073 4.28256C22.9946 4.24619 22.7764 4.29756 22.6007 4.42537C22.4252 4.55316 22.3064 4.74693 22.2709 4.96405C22.2351 5.18115 22.2855 5.40382 22.4108 5.58305C22.536 5.76229 22.7259 5.88341 22.9386 5.91978C23.2916 5.98118 31.5696 7.52016 34.024 15.8987C34.0853 16.1065 34.2248 16.2811 34.4121 16.3839C34.5994 16.4867 34.8189 16.5095 35.0226 16.4471V16.4349Z" fill="#184E9E"/>
<path d="M29.2474 12.0062C25.9706 8.96501 22.5817 7.6143 19.1807 7.99495C13.6661 8.60891 10.1888 13.5328 10.0444 13.7252C9.97751 13.8124 9.92873 13.9126 9.90085 14.0198C9.87298 14.1268 9.86673 14.2386 9.88241 14.3482C9.89809 14.4578 9.93541 14.5631 9.99218 14.6575C10.0488 14.752 10.1237 14.8337 10.2123 14.8977C10.3008 14.9618 10.4013 15.0068 10.5075 15.0302C10.6136 15.0534 10.7232 15.0545 10.8298 15.0332C10.9363 15.012 11.0375 14.969 11.1273 14.9066C11.217 14.8443 11.2935 14.764 11.3519 14.6708C11.384 14.6257 14.5604 10.1397 19.3732 9.60352C22.3009 9.27608 25.2649 10.4876 28.1965 13.1973C28.3561 13.3432 28.566 13.4185 28.7799 13.4066C28.9939 13.3947 29.1946 13.2966 29.3376 13.1338C29.4807 12.971 29.5545 12.7568 29.5429 12.5384C29.5311 12.32 29.435 12.1153 29.2754 11.9693L29.2474 12.0062ZM9.86397 16.4349C9.66564 16.3575 9.44525 16.3637 9.25127 16.4519C9.0573 16.5401 8.90557 16.7033 8.8292 16.9056C8.39953 18.132 8.17053 19.4222 8.15143 20.7244C8.11934 21.5634 8.12335 22.4312 8.15143 23.2703C8.17148 26.0454 8.19555 28.9105 6.76775 31.2273C6.43062 31.7855 5.99234 32.2731 5.47633 32.6639C5.31016 32.7907 5.19857 32.9782 5.16502 33.1872C5.13145 33.3961 5.17852 33.6101 5.29635 33.7845C5.41418 33.9587 5.59359 34.0797 5.7969 34.1218C6.00022 34.1639 6.21163 34.1241 6.38675 34.0105C7.07258 33.4969 7.65531 32.8535 8.1033 32.1154C9.78383 29.3935 9.75973 26.2828 9.73563 23.2703V20.8144C9.74927 19.6902 9.94296 18.5758 10.3091 17.5154C10.3508 17.4148 10.3724 17.3067 10.3724 17.1974C10.3726 17.0882 10.3512 16.9801 10.3097 16.8793C10.2683 16.7787 10.2075 16.6875 10.1308 16.6111C10.0543 16.5348 9.96357 16.4748 9.86397 16.4349ZM5.59264 23.2498C5.54951 23.0432 5.4298 22.8617 5.25853 22.7431C5.08727 22.6245 4.8777 22.578 4.67365 22.6134C4.4696 22.6487 4.28686 22.7633 4.16364 22.933C4.04042 23.1027 3.98625 23.3146 4.01245 23.5241C4.01245 23.5609 4.60201 27.2078 3.21032 29.6637C3.15792 29.7585 3.12434 29.8631 3.11149 29.9711C3.09866 30.0792 3.1068 30.1889 3.13548 30.2938C3.16415 30.3987 3.21279 30.4968 3.27862 30.5825C3.34445 30.6683 3.42618 30.7399 3.51914 30.7933C3.61211 30.8469 3.71448 30.8811 3.82041 30.8942C3.92636 30.9073 4.03378 30.899 4.13658 30.8697C4.23936 30.8405 4.33549 30.7908 4.41948 30.7236C4.50347 30.6565 4.57367 30.573 4.62609 30.4782C6.28247 27.5148 5.62473 23.4258 5.59264 23.2498Z" fill="#184E9E"/>
<path d="M18.7836 12.8534C18.7224 12.6456 18.5828 12.471 18.3956 12.3682C18.2083 12.2653 17.9886 12.2426 17.7849 12.305C17.5683 12.3704 12.499 13.9913 11.8973 19.783C11.8973 19.8158 11.6768 22.9674 11.7289 27.6745C11.7301 27.7366 11.7381 27.7983 11.753 27.8586C12.2538 27.6337 12.7878 27.4953 13.3331 27.4493C13.289 22.9469 13.4936 19.9467 13.4936 19.9427C13.9789 15.2683 18.0737 13.9299 18.2622 13.8726C18.463 13.8068 18.6302 13.6629 18.7278 13.4721C18.8254 13.2814 18.8454 13.0592 18.7836 12.8534ZM27.4105 28.1164C27.8269 28.1362 28.2392 28.2091 28.6377 28.3335C28.9259 25.4915 28.9823 22.6303 28.8062 19.7789V19.7298C27.8276 12.702 21.3745 11.9734 21.3103 11.953C21.0976 11.9318 20.8853 11.9977 20.7202 12.1363C20.5552 12.2748 20.4508 12.4746 20.43 12.6917C20.4092 12.9089 20.4739 13.1255 20.6096 13.294C20.7454 13.4624 20.9412 13.569 21.1539 13.5902C21.206 13.5902 26.3998 14.1837 27.214 19.9263C27.367 22.544 27.3241 25.1698 27.0857 27.7809C27.1899 27.8914 27.3062 27.9978 27.4105 28.1164ZM32.3636 29.7947C33.2379 21.7436 32.2514 17.2863 32.2032 17.0694C32.1464 16.8674 32.0157 16.6955 31.8382 16.5892C31.6607 16.4829 31.4499 16.4504 31.2496 16.4982C31.0491 16.5461 30.8744 16.6707 30.7616 16.8463C30.6486 17.0219 30.6062 17.2352 30.6431 17.4418C30.6431 17.4908 31.6016 21.7681 30.7834 29.4876C31.323 29.5012 31.8569 29.6049 32.3636 29.7947ZM35.508 18.1989C35.4029 18.2068 35.3004 18.2355 35.2061 18.2839C35.112 18.3321 35.0281 18.3987 34.9592 18.48C34.8903 18.5615 34.8378 18.6558 34.8045 18.7579C34.7714 18.86 34.7584 18.9677 34.7659 19.0749C34.7659 19.1486 35.2513 26.336 34.5012 31.3542C34.8758 31.8308 35.1565 32.377 35.3275 32.9627C35.4879 32.933 35.6358 32.8538 35.7512 32.7361C35.8666 32.6183 35.944 32.4675 35.9732 32.3037C36.9117 27.085 36.3742 19.2877 36.3742 18.9603C36.3672 18.852 36.3391 18.7462 36.2914 18.649C36.244 18.5519 36.1779 18.4654 36.0973 18.3945C36.0167 18.3237 35.9231 18.2699 35.8219 18.2362C35.7207 18.2027 35.614 18.1901 35.508 18.1989Z" fill="#184E9E"/>
<path d="M5.2878 9.91463C5.41278 9.73876 5.46419 9.51944 5.43073 9.30489C5.39726 9.09036 5.28165 8.89817 5.10933 8.7706C4.93701 8.64305 4.7221 8.5906 4.51188 8.62475C4.30166 8.65891 4.11335 8.77689 3.98835 8.95275C-1.54632 16.7296 0.587335 25.1612 0.683596 25.5174C0.749498 25.712 0.88483 25.8741 1.06261 25.9714C1.2404 26.0687 1.44759 26.0941 1.64288 26.0424C1.83816 25.9909 2.00722 25.866 2.11635 25.6928C2.22548 25.5196 2.26666 25.3109 2.2317 25.1081C2.21966 25.0098 0.214357 17.0325 5.2878 9.91463ZM6.72362 7.43831C6.83331 7.43849 6.94187 7.41568 7.04258 7.37132C7.1433 7.32698 7.23403 7.26201 7.30917 7.18045C9.72761 4.79546 12.7306 3.11888 16.0029 2.32667C19.2752 1.53445 22.696 1.65585 25.9064 2.67808C26.1107 2.73941 26.3305 2.71544 26.5174 2.61143C26.7042 2.50741 26.843 2.33189 26.9031 2.12347C26.9633 1.91504 26.9397 1.69079 26.8378 1.50004C26.7359 1.30929 26.564 1.16767 26.3597 1.10634C14.1794 -2.53649 6.2303 5.973 6.13406 6.05895C6.02807 6.17558 5.95767 6.32119 5.93147 6.47798C5.90527 6.63477 5.92439 6.79596 5.9865 6.94185C6.04861 7.08774 6.15103 7.21199 6.28122 7.29944C6.41141 7.38687 6.56375 7.43371 6.71961 7.43422L6.72362 7.43831ZM31.0962 3.22246C30.9168 3.128 30.7092 3.10605 30.5146 3.16099C30.32 3.21593 30.1529 3.34372 30.0465 3.51887C29.9402 3.69401 29.9026 3.90362 29.941 4.10587C29.9794 4.30812 30.0912 4.48814 30.254 4.61001C30.3664 4.67959 41.3273 11.8916 38.1228 25.9308C38.0735 26.142 38.1082 26.3644 38.2195 26.5494C38.3308 26.7344 38.5096 26.8668 38.7164 26.9172C38.7769 26.9313 38.8389 26.9382 38.9009 26.9376C39.0824 26.9378 39.2585 26.8752 39.4005 26.7599C39.5427 26.6447 39.6423 26.4836 39.6831 26.3033C43.1281 11.1384 31.2286 3.30022 31.0962 3.22246Z" stroke="#184E9E" stroke-width="0.4"/>
<path d="M18.3143 5.21577C18.2969 5.10953 18.259 5.00787 18.2029 4.9166C18.1469 4.82532 18.0737 4.74624 17.9876 4.68388C17.9017 4.62152 17.8042 4.57711 17.7014 4.55319C17.5985 4.52928 17.4919 4.52632 17.3878 4.54451C4.62606 6.73839 4.06056 19.7134 4.05654 19.8363C4.05279 19.9437 4.06985 20.051 4.10673 20.1518C4.14361 20.2525 4.19959 20.3449 4.27148 20.4235C4.34337 20.5022 4.42975 20.5657 4.52569 20.6103C4.62163 20.655 4.72524 20.6798 4.8306 20.6834H4.85867C5.06664 20.6836 5.26652 20.6013 5.41617 20.4539C5.5658 20.3065 5.65352 20.1056 5.6608 19.8935C5.6608 19.7748 6.18218 8.13003 17.6566 6.15308C17.8652 6.11696 18.0514 5.9982 18.1746 5.82263C18.2977 5.64708 18.348 5.42896 18.3143 5.21577ZM35.0226 16.4349C35.2263 16.3725 35.3973 16.2299 35.4981 16.0388C35.5989 15.8477 35.6212 15.6236 35.5601 15.4157C32.8169 6.04666 23.5963 4.36032 23.2073 4.28256C22.9946 4.24619 22.7764 4.29756 22.6007 4.42537C22.4252 4.55316 22.3064 4.74693 22.2709 4.96405C22.2351 5.18115 22.2855 5.40382 22.4108 5.58305C22.536 5.76229 22.7259 5.88341 22.9386 5.91978C23.2916 5.98118 31.5696 7.52016 34.024 15.8987C34.0853 16.1065 34.2248 16.2811 34.4121 16.3839C34.5994 16.4867 34.8189 16.5095 35.0226 16.4471V16.4349Z" stroke="#184E9E" stroke-width="0.4"/>
<path d="M29.2474 12.0062C25.9706 8.96501 22.5817 7.6143 19.1807 7.99495C13.6661 8.60891 10.1888 13.5328 10.0444 13.7252C9.97751 13.8124 9.92873 13.9126 9.90085 14.0198C9.87298 14.1268 9.86673 14.2386 9.88241 14.3482C9.89809 14.4578 9.93541 14.5631 9.99218 14.6575C10.0488 14.752 10.1237 14.8337 10.2123 14.8977C10.3008 14.9618 10.4013 15.0068 10.5075 15.0302C10.6136 15.0534 10.7232 15.0545 10.8298 15.0332C10.9363 15.012 11.0375 14.969 11.1273 14.9066C11.217 14.8443 11.2935 14.764 11.3519 14.6708C11.384 14.6257 14.5604 10.1397 19.3732 9.60352C22.3009 9.27608 25.2649 10.4876 28.1965 13.1973C28.3561 13.3432 28.566 13.4185 28.7799 13.4066C28.9939 13.3947 29.1946 13.2966 29.3376 13.1338C29.4807 12.971 29.5545 12.7568 29.5429 12.5384C29.5311 12.32 29.435 12.1153 29.2754 11.9693L29.2474 12.0062ZM9.86397 16.4349C9.66564 16.3575 9.44525 16.3637 9.25127 16.4519C9.0573 16.5401 8.90557 16.7033 8.8292 16.9056C8.39953 18.132 8.17053 19.4222 8.15143 20.7244C8.11934 21.5634 8.12335 22.4312 8.15143 23.2703C8.17148 26.0454 8.19555 28.9105 6.76775 31.2273C6.43062 31.7855 5.99234 32.2731 5.47633 32.6639C5.31016 32.7907 5.19857 32.9782 5.16502 33.1872C5.13145 33.3961 5.17852 33.6101 5.29635 33.7845C5.41418 33.9587 5.59359 34.0797 5.7969 34.1218C6.00022 34.1639 6.21163 34.1241 6.38675 34.0105C7.07258 33.4969 7.65531 32.8535 8.1033 32.1154C9.78383 29.3935 9.75973 26.2828 9.73563 23.2703V20.8144C9.74927 19.6902 9.94296 18.5758 10.3091 17.5154C10.3508 17.4148 10.3724 17.3067 10.3724 17.1974C10.3726 17.0882 10.3512 16.9801 10.3097 16.8793C10.2683 16.7787 10.2075 16.6875 10.1308 16.6111C10.0543 16.5348 9.96357 16.4748 9.86397 16.4349ZM5.59264 23.2498C5.54951 23.0432 5.4298 22.8617 5.25853 22.7431C5.08727 22.6245 4.8777 22.578 4.67365 22.6134C4.4696 22.6487 4.28686 22.7633 4.16364 22.933C4.04042 23.1027 3.98625 23.3146 4.01245 23.5241C4.01245 23.5609 4.60201 27.2078 3.21032 29.6637C3.15792 29.7585 3.12434 29.8631 3.11149 29.9711C3.09866 30.0792 3.1068 30.1889 3.13548 30.2938C3.16415 30.3987 3.21279 30.4968 3.27862 30.5825C3.34445 30.6683 3.42618 30.7399 3.51914 30.7933C3.61211 30.8469 3.71448 30.8811 3.82041 30.8942C3.92636 30.9073 4.03378 30.899 4.13658 30.8697C4.23936 30.8405 4.33549 30.7908 4.41948 30.7236C4.50347 30.6565 4.57367 30.573 4.62609 30.4782C6.28247 27.5148 5.62473 23.4258 5.59264 23.2498Z" stroke="#184E9E" stroke-width="0.4"/>
<path d="M18.7836 12.8534C18.7224 12.6456 18.5828 12.471 18.3956 12.3682C18.2083 12.2653 17.9886 12.2426 17.7849 12.305C17.5683 12.3704 12.499 13.9913 11.8973 19.783C11.8973 19.8158 11.6768 22.9674 11.7289 27.6745C11.7301 27.7366 11.7381 27.7983 11.753 27.8586C12.2538 27.6337 12.7878 27.4953 13.3331 27.4493C13.289 22.9469 13.4936 19.9467 13.4936 19.9427C13.9789 15.2683 18.0737 13.9299 18.2622 13.8726C18.463 13.8068 18.6302 13.6629 18.7278 13.4721C18.8254 13.2814 18.8454 13.0592 18.7836 12.8534ZM27.4105 28.1164C27.8269 28.1362 28.2392 28.2091 28.6377 28.3335C28.9259 25.4915 28.9823 22.6303 28.8062 19.7789V19.7298C27.8276 12.702 21.3745 11.9734 21.3103 11.953C21.0976 11.9318 20.8853 11.9977 20.7202 12.1363C20.5552 12.2748 20.4508 12.4746 20.43 12.6917C20.4092 12.9089 20.4739 13.1255 20.6096 13.294C20.7454 13.4624 20.9412 13.569 21.1539 13.5902C21.206 13.5902 26.3998 14.1837 27.214 19.9263C27.367 22.544 27.3241 25.1698 27.0857 27.7809C27.1899 27.8914 27.3062 27.9978 27.4105 28.1164ZM32.3636 29.7947C33.2379 21.7436 32.2514 17.2863 32.2032 17.0694C32.1464 16.8674 32.0157 16.6955 31.8382 16.5892C31.6607 16.4829 31.4499 16.4504 31.2496 16.4982C31.0491 16.5461 30.8744 16.6707 30.7616 16.8463C30.6486 17.0219 30.6062 17.2352 30.6431 17.4418C30.6431 17.4908 31.6016 21.7681 30.7834 29.4876C31.323 29.5012 31.8569 29.6049 32.3636 29.7947ZM35.508 18.1989C35.4029 18.2068 35.3004 18.2355 35.2061 18.2839C35.112 18.3321 35.0281 18.3987 34.9592 18.48C34.8903 18.5615 34.8378 18.6558 34.8045 18.7579C34.7714 18.86 34.7584 18.9677 34.7659 19.0749C34.7659 19.1486 35.2513 26.336 34.5012 31.3542C34.8758 31.8308 35.1565 32.377 35.3275 32.9627C35.4879 32.933 35.6358 32.8538 35.7512 32.7361C35.8666 32.6183 35.944 32.4675 35.9732 32.3037C36.9117 27.085 36.3742 19.2877 36.3742 18.9603C36.3672 18.852 36.3391 18.7462 36.2914 18.649C36.244 18.5519 36.1779 18.4654 36.0973 18.3945C36.0167 18.3237 35.9231 18.2699 35.8219 18.2362C35.7207 18.2027 35.614 18.1901 35.508 18.1989Z" stroke="#184E9E" stroke-width="0.4"/>
<path d="M31.1794 33.9875C31.448 33.9278 31.7223 33.8973 31.9974 33.8967C32.948 33.8783 33.8676 34.2366 34.557 34.8939C35.2463 35.5512 35.6501 36.4545 35.6809 37.4084L34.2452 46.6281C34.2344 46.6975 34.2291 46.7677 34.2284 46.8379C34.2268 46.9763 34.2222 47.1132 34.2145 47.249C34.1896 47.6935 33.8075 48.022 33.3622 48.022C32.8089 48.022 32.3942 47.5225 32.4127 46.9695C32.4141 46.9262 32.4151 46.883 32.4158 46.8395C32.4169 46.7684 32.425 46.6974 32.4415 46.6281L33.2953 43.0507C33.3127 42.9775 33.3168 42.902 33.3215 42.8269L33.8685 37.4084C33.8371 36.9399 33.6262 36.5019 33.2797 36.1862C32.9333 35.8707 32.4786 35.7022 32.0109 35.7161C31.7153 35.716 31.4233 35.7827 31.1568 35.9112C31.0415 35.9703 30.915 36.0037 30.7858 36.0095C30.6566 36.0152 30.5275 35.9931 30.4076 35.9445C30.2877 35.8958 30.1795 35.8219 30.0903 35.7277C30.0013 35.6336 29.9334 35.5213 29.8913 35.3986C29.8636 35.3568 29.8395 35.3128 29.819 35.2669C29.6668 34.9356 29.4214 34.6559 29.1131 34.4624C28.8048 34.269 28.4469 34.1701 28.0834 34.178C27.8046 34.1775 27.5289 34.2363 27.2744 34.3504C27.1511 34.4055 27.0171 34.432 26.8824 34.4283C26.7475 34.4245 26.6151 34.3905 26.4951 34.3287C26.3751 34.267 26.2702 34.179 26.1885 34.0712C26.1068 33.9635 26.05 33.8388 26.0226 33.7061C25.9153 33.3042 25.6754 32.9507 25.3422 32.7034C25.0088 32.4562 24.6017 32.3298 24.1875 32.3449C23.9295 32.3454 23.6738 32.393 23.4328 32.4856C23.2957 32.5388 23.1478 32.5575 23.0019 32.5404C22.856 32.5231 22.7163 32.4704 22.5953 32.3869C22.4743 32.3033 22.3752 32.1913 22.307 32.0607C22.2386 31.9301 22.2032 31.7846 22.2035 31.6371V20.4848C22.2035 20.0035 22.013 19.5418 21.674 19.2015C21.3349 18.8611 20.8751 18.6699 20.3956 18.6699C20.1598 18.6686 19.926 18.7149 19.7084 18.8063C19.4906 18.8974 19.2936 19.0317 19.1286 19.2012C18.9637 19.3705 18.8345 19.5714 18.7485 19.792C18.6626 20.0125 18.6218 20.2481 18.6285 20.4848V37.2361C18.628 37.4356 18.5623 37.6294 18.4412 37.7875C18.3201 37.9456 18.1505 38.0593 17.9586 38.111C17.7668 38.1627 17.5632 38.1493 17.3795 38.0733C17.1959 37.997 17.0424 37.8623 16.9427 37.6898C16.2227 36.3997 15.378 35.184 14.4207 34.0601C14.0871 33.6914 13.6248 33.4661 13.13 33.4305C12.6352 33.3951 12.1456 33.5522 11.7632 33.8694C10.5203 34.9086 11.9576 37.5583 13.0061 39.491C13.39 40.1583 13.7311 40.8493 14.0275 41.56C14.0583 41.6417 14.0892 41.7238 14.1202 41.8059C14.4839 42.7726 14.8558 43.7612 15.2432 44.6226L15.2704 44.6907C15.5134 45.3673 15.7868 46.032 16.0895 46.6826C16.3748 47.2957 15.9409 48.022 15.2646 48.022C14.9258 48.022 14.6151 47.8305 14.4712 47.5238C14.1363 46.8093 13.8343 46.079 13.5666 45.3349C13.1329 44.3555 12.7218 43.2581 12.3243 42.1971L12.3236 42.1952C12.0591 41.5652 11.7572 40.9517 11.4196 40.3577C10.0684 37.8713 8.22435 34.4638 10.6061 32.472C11.3485 31.8517 12.3015 31.5445 13.2647 31.6146C14.228 31.6849 15.1268 32.1271 15.7721 32.8486C16.1162 33.2532 16.8206 33.0118 16.8206 32.4805V20.4848C16.899 19.5798 17.3123 18.7373 17.9792 18.1234C18.646 17.5097 19.5179 17.1691 20.4227 17.1691C21.3275 17.1691 22.1994 17.5097 22.8663 18.1234C23.5331 18.7373 23.9466 19.5798 24.0249 20.4848V30.5301C24.7183 30.4936 25.4081 30.6523 26.0166 30.9881C26.6251 31.3241 27.128 31.8238 27.4688 32.4312C27.6764 32.3973 27.8866 32.3807 28.097 32.3812C28.7023 32.3759 29.2999 32.5195 29.8371 32.7995C30.3745 33.0794 30.8353 33.4874 31.1794 33.9875Z" fill="#58B23B" stroke="#58B23B" stroke-width="0.4"/>
</svg>
