<svg width="30" height="37" viewBox="0 0 30 37" fill="none" xmlns="http://www.w3.org/2000/svg">
<path d="M20.8496 7.1336C21.5982 7.78993 22.2098 8.51548 22.7462 9.35626C22.7891 9.4219 22.8319 9.48753 22.8761 9.55515C24.2039 11.7016 24.5206 14.3342 24.0224 16.783C23.5294 18.9063 22.3276 20.7063 20.7133 22.132C20.2265 22.5685 20.0766 23.0029 20.0391 23.6462C20.0302 23.9781 20.0258 24.3098 20.0243 24.6418C20.012 25.2552 19.9282 25.7198 19.5291 26.1958C19.0027 26.6377 19.0027 26.6377 18.7758 26.6377C18.7791 26.7127 18.7824 26.7877 18.7858 26.865C18.8152 27.8383 18.8152 27.8383 18.5542 28.2946C18.4715 28.442 18.4715 28.442 18.4922 28.7086C18.5536 28.8502 18.5536 28.8502 18.634 28.9942C18.8592 29.4842 18.861 30.0229 18.6783 30.5296C18.5631 30.7795 18.5631 30.7795 18.4612 30.9268C18.3974 31.0889 18.3974 31.0889 18.5498 31.3151C18.5766 31.3556 18.6034 31.3961 18.631 31.4378C18.8581 31.8286 18.8307 32.3663 18.7431 32.7969C18.6242 33.1576 18.4252 33.46 18.1377 33.7073C18.0428 33.7473 17.9467 33.7845 17.8497 33.8189C17.6242 33.9178 17.5768 33.979 17.473 34.21C17.4161 34.3861 17.3603 34.5626 17.3055 34.7395C17.0695 35.4076 16.5227 35.9007 15.9091 36.2271C15.1662 36.5698 14.2357 36.6459 13.4539 36.3763C12.8808 36.1245 12.2826 35.7813 12.0403 35.1713C12.0403 34.9221 12.1236 34.7738 12.253 34.5643C12.5036 34.396 12.5959 34.3865 12.8911 34.4215C13.0949 34.542 13.0949 34.542 13.3165 34.7071C13.4149 34.772 13.5139 34.836 13.6134 34.899C13.6597 34.9287 13.7061 34.9585 13.7538 34.9891C14.1234 35.2026 14.5351 35.179 14.9472 35.1356C15.4796 34.9755 15.7998 34.6816 16.0816 34.2072C16.105 34.1601 16.1284 34.113 16.1525 34.0644C16.0767 34.0659 16.0008 34.0674 15.9227 34.0689C15.641 34.0741 15.3593 34.0774 15.0776 34.0801C14.9557 34.0815 14.8339 34.0835 14.712 34.086C14.5367 34.0894 14.3615 34.091 14.1861 34.0923C14.1046 34.0945 14.1046 34.0945 14.0214 34.0968C13.7691 34.0969 13.6292 34.0868 13.4258 33.9302C13.2932 33.7465 13.2509 33.6497 13.2456 33.4217C13.383 32.968 13.383 32.968 13.5968 32.8369C13.9194 32.7505 14.2339 32.7591 14.5664 32.7595C14.7158 32.758 14.8652 32.7565 15.0146 32.755C15.2496 32.7534 15.4845 32.7522 15.7195 32.7518C15.9467 32.7511 16.1738 32.7487 16.4009 32.7461C16.4713 32.7465 16.5416 32.7468 16.614 32.7472C16.9973 32.7461 16.9973 32.7461 17.3315 32.576C17.4634 32.367 17.4646 32.2365 17.4287 31.9935C17.2973 31.8107 17.2204 31.7807 17.0033 31.7078C16.8527 31.7006 16.702 31.6949 16.5513 31.69C16.2499 31.6673 16.1068 31.6522 15.8468 31.4892C15.6786 31.1943 15.6792 31.0457 15.7271 30.7081C15.8836 30.4961 15.9743 30.4347 16.2234 30.351C16.4567 30.3373 16.6898 30.3284 16.9233 30.3206C17.1845 30.2723 17.2711 30.206 17.4287 29.994C17.4538 29.7458 17.4362 29.5881 17.3578 29.3513C17.113 29.2496 16.8435 29.2699 16.5823 29.262C16.2696 29.2401 16.1126 29.2275 15.8423 29.0612C15.6803 28.7661 15.6796 28.6153 15.7271 28.2801C15.8597 28.1065 15.9598 28.0201 16.1525 27.9231C16.3029 27.9084 16.4537 27.8969 16.6045 27.8874C16.9888 27.8734 16.9888 27.8734 17.3578 27.7803C17.4289 27.5655 17.4502 27.3848 17.4686 27.1599C17.4745 27.0889 17.4805 27.0179 17.4866 26.9448C17.4909 26.8906 17.4952 26.8364 17.4996 26.7805C17.4065 26.783 17.3133 26.7855 17.2174 26.788C17.0943 26.79 16.9713 26.792 16.8482 26.7939C16.7563 26.7966 16.7563 26.7966 16.6625 26.7993C16.3164 26.8033 16.0768 26.7987 15.798 26.5663C15.6861 26.3408 15.669 26.0945 15.7271 25.8522C15.9151 25.6169 16.0207 25.5069 16.3191 25.4491C16.4075 25.4485 16.496 25.4478 16.587 25.4471C16.6347 25.4462 16.6823 25.4453 16.7313 25.4444C16.8826 25.4418 17.0337 25.4416 17.185 25.4415C17.3365 25.44 17.4879 25.438 17.6394 25.4357C17.7767 25.4338 17.9139 25.4332 18.0512 25.4327C18.3145 25.425 18.3145 25.425 18.5631 25.3523C18.6392 25.1223 18.6451 24.9492 18.649 24.7074C18.651 24.6214 18.653 24.5354 18.6551 24.4468C18.6587 24.2672 18.6619 24.0875 18.6645 23.9079C18.6889 22.9422 18.8893 22.0136 19.5823 21.2997C19.6668 21.221 19.7525 21.1437 19.8393 21.0676C19.8856 21.0268 19.9318 20.9859 19.9794 20.9438C20.0695 20.8646 20.1601 20.7861 20.2514 20.7084C20.6619 20.3363 21.0124 19.9489 21.3282 19.4921C21.365 19.439 21.4017 19.3859 21.4396 19.3312C22.7163 17.4501 23.1515 15.2025 22.744 12.972C22.3089 10.7889 21.0199 8.81767 19.1923 7.56207C18.2479 6.93748 17.2521 6.53639 16.1525 6.2856C16.0756 6.26802 15.9988 6.25044 15.9196 6.23232C13.7825 5.8296 11.6134 6.40009 9.81139 7.57099C9.48428 7.79753 9.18975 8.04743 8.90243 8.32304C8.77891 8.42792 8.77891 8.42792 8.63711 8.42792C8.6181 8.47091 8.59909 8.5139 8.57951 8.55819C8.49378 8.71639 8.4162 8.797 8.28261 8.91441C6.83933 10.3349 6.17576 12.5622 6.14232 14.5425C6.16459 16.8431 7.06443 19.0016 8.68143 20.6302C8.90342 20.8485 9.12971 21.0555 9.36827 21.2551C9.96812 21.7751 10.225 22.4383 10.3387 23.21C10.3479 23.3619 10.3544 23.5139 10.3587 23.666C10.3626 23.793 10.3626 23.793 10.3667 23.9225C10.3717 24.0999 10.3767 24.2774 10.3816 24.4548C10.3843 24.5391 10.3869 24.6235 10.3897 24.7104C10.3918 24.7874 10.394 24.8643 10.3962 24.9435C10.402 25.1448 10.402 25.1448 10.4805 25.3523C10.6999 25.4394 10.9228 25.4338 11.1563 25.4361C11.2348 25.4371 11.3134 25.438 11.3943 25.439C11.4788 25.4398 11.5633 25.4405 11.6504 25.4413C11.8291 25.4436 12.0078 25.446 12.1865 25.4484C12.4685 25.4518 12.7504 25.4549 13.0324 25.4577C13.3043 25.4606 13.5763 25.4643 13.8483 25.468C13.975 25.4689 13.975 25.469 14.1043 25.4699C14.1829 25.4711 14.2614 25.4722 14.3423 25.4735C14.4114 25.4742 14.4804 25.4749 14.5516 25.4757C14.7416 25.4959 14.8572 25.5359 15.0181 25.6379C15.1813 25.8681 15.1936 26.075 15.1599 26.352C15.0323 26.5448 14.9413 26.6764 14.7345 26.7805C14.6317 26.7869 14.5286 26.7889 14.4255 26.7886C14.3297 26.7886 14.3297 26.7886 14.232 26.7886C14.1629 26.7882 14.0939 26.7879 14.0227 26.7875C13.9521 26.7874 13.8815 26.7873 13.8088 26.7872C13.5826 26.7868 13.3565 26.7859 13.1304 26.785C12.9773 26.7846 12.8243 26.7843 12.6712 26.784C12.2955 26.7832 11.9197 26.782 11.544 26.7805C11.554 26.907 11.5644 27.0334 11.575 27.1599C11.5808 27.2303 11.5865 27.3007 11.5925 27.3733C11.6091 27.5727 11.6091 27.5727 11.6858 27.7803C11.9742 27.8888 12.2856 27.8627 12.5895 27.8642C12.713 27.8659 12.8365 27.8676 12.9599 27.8694C13.154 27.8719 13.3479 27.874 13.542 27.8749C13.7297 27.876 13.9173 27.8789 14.105 27.8821C14.1628 27.8819 14.2205 27.8818 14.28 27.8817C14.6379 27.8894 14.8298 27.937 15.089 28.2087C15.1876 28.4072 15.173 28.56 15.1599 28.78C15.1023 28.9542 15.0582 29.037 14.9097 29.1432C14.6484 29.2406 14.3872 29.2327 14.1119 29.2355C14.0516 29.2367 13.9913 29.238 13.9292 29.2392C13.7368 29.243 13.5444 29.2459 13.352 29.2486C13.1595 29.2518 12.9671 29.2551 12.7747 29.2588C12.6551 29.2611 12.5355 29.263 12.4159 29.2646C12.1614 29.2691 11.9308 29.2824 11.6858 29.3513C11.6661 29.4521 11.6489 29.5534 11.6326 29.6548C11.6228 29.7111 11.6129 29.7675 11.6027 29.8255C11.6012 30.0014 11.6012 30.0014 11.7187 30.1451C11.9739 30.336 12.2131 30.3187 12.5186 30.3156C12.5787 30.3163 12.6389 30.317 12.7008 30.3177C12.8928 30.3197 13.0847 30.3199 13.2766 30.3198C13.4683 30.3201 13.66 30.3207 13.8517 30.3227C13.9708 30.3239 14.09 30.3241 14.2091 30.3232C14.5369 30.3262 14.7526 30.3503 15.0181 30.5653C15.183 30.8144 15.1836 30.9153 15.1599 31.208C15.0743 31.4467 15.0237 31.4898 14.8054 31.6364C14.599 31.6511 14.3988 31.6579 14.1922 31.6585C14.0685 31.6603 13.9448 31.6621 13.8211 31.6639C13.6263 31.666 13.4315 31.6677 13.2367 31.669C13.0486 31.6706 12.8605 31.6734 12.6723 31.6763C12.6143 31.6763 12.5563 31.6763 12.4966 31.6763C12.1381 31.6826 11.8808 31.7256 11.6149 31.9935C11.5883 32.2346 11.5827 32.3726 11.7168 32.5782C11.8938 32.7042 12.0171 32.7497 12.222 32.8103C12.4429 32.8788 12.5247 32.9091 12.6873 33.0825C12.7706 33.3462 12.7505 33.5127 12.6784 33.7788C12.5809 33.9528 12.5809 33.9528 12.3948 34.0644C11.8321 34.1639 11.37 34.0329 10.9059 33.7073C10.5348 33.3753 10.3012 32.9931 10.2429 32.4948C10.2204 31.9867 10.2863 31.6469 10.5586 31.2166C10.6417 31.0669 10.6417 31.0669 10.5691 30.9181C10.5399 30.8724 10.5106 30.8266 10.4805 30.7795C10.262 30.3054 10.1919 29.873 10.2678 29.3513C10.3509 29.1517 10.4441 28.9742 10.5586 28.7912C10.6417 28.6391 10.6417 28.6391 10.5691 28.4888C10.5399 28.4435 10.5106 28.3982 10.4805 28.3515C10.2038 27.7941 10.248 27.2462 10.2678 26.6377C10.2015 26.6175 10.1351 26.5974 10.0667 26.5766C9.79652 26.4781 9.67706 26.3534 9.48791 26.1378C9.43673 26.0804 9.38555 26.0229 9.33282 25.9637C9.10023 25.6325 9.04521 25.3085 9.03814 24.9088C9.03604 24.8257 9.03394 24.7427 9.03177 24.6571C9.03022 24.5714 9.02866 24.4856 9.02706 24.3972C9.01138 23.5368 8.98869 22.8126 8.37719 22.1545C8.24794 22.0298 8.1156 21.9098 7.98129 21.7907C7.88584 21.703 7.79056 21.6151 7.69547 21.5271C7.62706 21.4638 7.62706 21.4638 7.55727 21.3993C6.02474 19.9652 5.1906 17.9044 4.87941 15.8546C4.86625 15.7761 4.85309 15.6976 4.83953 15.6167C4.7288 14.6816 4.77964 13.7077 4.95031 12.784C4.9587 12.7377 4.96708 12.6914 4.97572 12.6437C5.44848 10.1229 6.94039 7.88205 9.03703 6.43046C12.7014 3.99257 17.4999 4.2814 20.8496 7.1336Z" fill="#184E9E"/>
<path d="M13.0852 12.6177C13.5974 13.0577 13.9004 13.581 14.0156 14.2386C14.0211 14.3578 14.0233 14.4773 14.0226 14.5967C14.0222 14.6951 14.0222 14.6951 14.0219 14.7956C14.021 14.897 14.021 14.897 14.02 15.0005C14.0197 15.0695 14.0194 15.1385 14.0191 15.2096C14.0182 15.3792 14.0169 15.5488 14.0156 15.7185C14.3934 15.7185 14.7713 15.7185 15.1606 15.7185C15.1581 15.6198 15.1556 15.5211 15.1531 15.4195C15.151 15.2872 15.1491 15.1549 15.1472 15.0226C15.1454 14.9579 15.1436 14.8932 15.1417 14.8266C15.1331 14.0227 15.3622 13.3688 15.9213 12.776C16.4846 12.2625 17.1216 12.1043 17.8801 12.1244C18.5607 12.2034 19.1383 12.4624 19.5867 12.9825C19.6981 13.1385 19.7932 13.295 19.8839 13.4634C19.9082 13.5058 19.9324 13.5482 19.9574 13.5919C20.2153 14.1313 20.1845 14.8641 20.0226 15.4278C19.7603 16.0639 19.2683 16.5158 18.6673 16.846C18.3688 16.9598 18.124 17.004 17.8046 17.0007C17.7253 17.0003 17.6459 16.9998 17.5642 16.9993C17.4416 16.9976 17.4416 16.9976 17.3165 16.9958C17.2331 16.9951 17.1497 16.9945 17.0638 16.9938C16.8588 16.9922 16.6538 16.9899 16.4488 16.9869C16.4494 17.0718 16.4501 17.1567 16.4507 17.2441C16.4565 18.0435 16.4608 18.843 16.4636 19.6425C16.4651 20.0535 16.4671 20.4645 16.4704 20.8756C16.4735 21.2722 16.4752 21.6688 16.4759 22.0654C16.4765 22.2168 16.4775 22.3681 16.479 22.5195C16.4811 22.7314 16.4814 22.9432 16.4813 23.1552C16.4823 23.2178 16.4833 23.2805 16.4844 23.345C16.4825 23.6317 16.4715 23.7854 16.319 24.0362C16.1018 24.2289 15.951 24.2455 15.6616 24.2455C15.3851 24.1306 15.2727 24.0217 15.1606 23.7522C15.143 23.6119 15.143 23.6119 15.1434 23.4615C15.1432 23.4042 15.143 23.3468 15.1428 23.2878C15.1436 23.1944 15.1436 23.1944 15.1444 23.0992C15.1443 23.0331 15.1443 22.9671 15.1443 22.8991C15.1444 22.681 15.1455 22.4629 15.1466 22.2448C15.1469 22.0935 15.1471 21.9422 15.1472 21.7909C15.1478 21.3929 15.1492 20.9948 15.1508 20.5967C15.1522 20.1905 15.1529 19.7843 15.1536 19.378C15.1552 18.581 15.1576 17.784 15.1606 16.9869C14.7827 16.9869 14.4049 16.9869 14.0156 16.9869C14.0163 17.1129 14.0163 17.1129 14.017 17.2414C14.0214 18.0326 14.0246 18.8237 14.0267 19.6149C14.0278 20.0217 14.0293 20.4284 14.0318 20.8352C14.0341 21.2277 14.0354 21.6202 14.0359 22.0127C14.0363 22.1625 14.0371 22.3123 14.0383 22.4621C14.0398 22.6718 14.04 22.8815 14.0399 23.0912C14.0407 23.1532 14.0415 23.2152 14.0423 23.279C14.0406 23.6132 14.0204 23.8324 13.8009 24.1046C13.6109 24.2516 13.5098 24.2454 13.2641 24.2411C12.9532 24.1591 12.8911 24.0929 12.7274 23.8227C12.6873 23.5998 12.6912 23.381 12.6949 23.1552C12.6949 23.0885 12.6948 23.0217 12.6948 22.953C12.695 22.7329 12.6972 22.513 12.6994 22.2929C12.7 22.1402 12.7004 21.9874 12.7007 21.8347C12.7018 21.433 12.7046 21.0314 12.7077 20.6297C12.7107 20.2197 12.712 19.8097 12.7134 19.3996C12.7165 18.5954 12.7214 17.7912 12.7274 16.9869C12.6766 16.9884 12.6257 16.9899 12.5734 16.9914C12.34 16.9973 12.1066 17.001 11.8731 17.0046C11.7931 17.0069 11.7132 17.0093 11.6309 17.0117C10.8695 17.0205 10.2772 16.8037 9.72166 16.2822C9.19186 15.6609 9.03933 15.1079 9.0499 14.2999C9.11392 13.6689 9.39356 13.1159 9.87597 12.6942C10.8716 11.9785 12.0546 11.9252 13.0852 12.6177ZM10.5089 13.9567C10.3273 14.2587 10.3275 14.5299 10.3657 14.8728C10.4964 15.2444 10.6955 15.4223 11.0098 15.648C11.2203 15.7171 11.3551 15.7266 11.5742 15.7253C11.6414 15.7251 11.7085 15.7249 11.7776 15.7247C11.8475 15.7241 11.9174 15.7235 11.9894 15.7229C12.0601 15.7225 12.1308 15.7222 12.2037 15.7219C12.3782 15.7211 12.5528 15.7199 12.7274 15.7185C12.7358 15.4939 12.7408 15.2693 12.7453 15.0446C12.7477 14.9815 12.7501 14.9184 12.7526 14.8534C12.759 14.4186 12.6989 14.1712 12.4411 13.8157C12.1756 13.5676 11.9207 13.4182 11.5555 13.3709C11.1055 13.4236 10.7986 13.6225 10.5089 13.9567ZM16.6679 13.8906C16.4813 14.1523 16.4398 14.3264 16.4418 14.638C16.442 14.7009 16.4423 14.7638 16.4425 14.8286C16.4431 14.8941 16.4437 14.9595 16.4443 15.027C16.4446 15.0932 16.445 15.1595 16.4453 15.2278C16.4461 15.3913 16.4473 15.5549 16.4488 15.7185C16.6903 15.7246 16.9318 15.7284 17.1734 15.7317C17.2415 15.7334 17.3095 15.7352 17.3797 15.737C17.8266 15.7416 18.1539 15.7111 18.4987 15.4013C18.8014 15.0185 18.8674 14.7135 18.8104 14.2386C18.7139 13.9599 18.5561 13.7731 18.3318 13.5779C17.7008 13.273 17.1359 13.3625 16.6679 13.8906Z" fill="#58B23B"/>
<path d="M2.99615 6.93765C3.20883 7.05254 3.41576 7.17427 3.62237 7.30008C3.6927 7.34138 3.76302 7.38269 3.83547 7.42525C5.18828 8.22673 5.18828 8.22673 5.29039 8.57782C5.30694 8.86926 5.24675 9.00631 5.08969 9.24841C4.91787 9.39179 4.82226 9.3937 4.59993 9.39C4.16581 9.32077 3.79192 9.05537 3.41721 8.83608C3.33916 8.79165 3.26111 8.74721 3.1807 8.70143C2.03274 8.03932 2.03274 8.03932 1.87854 7.72599C1.8758 7.43322 1.88439 7.16137 2.06139 6.924C2.39393 6.79407 2.67168 6.79824 2.99615 6.93765Z" fill="#58B23B"/>
<path d="M4.84704 19.6557C5.10219 19.7951 5.19654 19.8815 5.29305 20.1498C5.29305 20.43 5.21946 20.5666 5.07004 20.8056C4.89157 20.9413 4.89157 20.9413 4.68153 21.0552C4.60477 21.0976 4.52802 21.14 4.44894 21.1837C4.36874 21.2264 4.28854 21.2692 4.2059 21.3132C4.12742 21.3563 4.04894 21.3993 3.96809 21.4436C3.81374 21.5281 3.65903 21.6119 3.50393 21.695C3.36473 21.7696 3.22597 21.8451 3.08783 21.9216C3.02885 21.9541 2.96987 21.9866 2.90911 22.0202C2.85812 22.0486 2.80713 22.0769 2.7546 22.1062C2.54477 22.2053 2.39854 22.2162 2.17099 22.1712C1.97029 22.0418 1.83337 21.9496 1.72498 21.74C1.68692 21.4701 1.70261 21.3429 1.85449 21.1108C2.16792 20.7643 2.61229 20.575 3.02584 20.3609C3.19233 20.2731 3.35881 20.1852 3.52527 20.0973C3.59882 20.059 3.67236 20.0207 3.74813 19.9813C3.8849 19.9086 4.0195 19.8319 4.15146 19.7513C4.39855 19.6165 4.56785 19.6219 4.84704 19.6557Z" fill="#58B23B"/>
<path d="M26.9493 7.0144C27.1219 7.14155 27.2077 7.2375 27.3042 7.42234C27.3328 7.66917 27.3321 7.79049 27.1858 7.99932C27.0089 8.18204 26.8497 8.2832 26.6219 8.4021C26.545 8.44272 26.4681 8.48334 26.3888 8.5252C26.3088 8.56652 26.2288 8.60785 26.1464 8.65042C25.9884 8.73337 25.8305 8.81632 25.6725 8.89928C25.5983 8.93777 25.524 8.97625 25.4476 9.0159C25.2817 9.10321 25.1194 9.19393 24.9574 9.28757C24.6852 9.42663 24.5445 9.41063 24.2521 9.32608C24.0843 9.20341 23.9949 9.10896 23.9061 8.92663C23.8928 8.71116 23.9455 8.56998 24.0392 8.37421C24.4003 8.06707 24.8226 7.84761 25.2387 7.61695C25.3292 7.56657 25.4192 7.51566 25.509 7.46424C25.6399 7.38926 25.7717 7.31589 25.9037 7.24281C26.0208 7.17704 26.0208 7.17704 26.1402 7.10994C26.4415 6.99063 26.6258 6.98723 26.9493 7.0144Z" fill="#58B23B"/>
<path d="M24.6614 19.6363C25.013 19.7102 25.3173 19.9246 25.6225 20.1079C25.6927 20.1488 25.763 20.1897 25.8354 20.2318C27.0713 20.9568 27.0713 20.9568 27.2995 21.3185C27.3411 21.6002 27.3241 21.7117 27.1664 21.9507C26.989 22.1352 26.9296 22.1744 26.6772 22.1966C26.4132 22.1767 26.2693 22.1071 26.0404 21.9748C25.9645 21.9314 25.8887 21.888 25.8106 21.8433C25.7324 21.7974 25.6542 21.7514 25.5737 21.7041C25.4963 21.6598 25.4189 21.6155 25.3392 21.5698C24.9904 21.3685 24.6445 21.1622 24.305 20.945C24.2305 20.8973 24.2305 20.8973 24.1544 20.8486C24.0117 20.7252 23.9653 20.6335 23.9099 20.4532C23.8906 20.1459 23.9102 20.043 24.1051 19.812C24.3111 19.6733 24.4172 19.6286 24.6614 19.6363Z" fill="#58B23B"/>
<path d="M21.8184 1.75297C22.0321 1.89962 22.0321 1.89962 22.1822 2.10849C22.2523 2.58685 22.0568 2.89191 21.8184 3.29058C21.7822 3.35285 21.7459 3.41512 21.7086 3.47928C21.601 3.66304 21.4918 3.84578 21.3819 4.02828C21.3366 4.10431 21.3366 4.10431 21.2904 4.18187C20.8483 4.92106 20.8483 4.92106 20.5817 5.09483C20.0749 5.142 20.0749 5.142 19.8223 4.98373C19.6633 4.74133 19.6311 4.60331 19.6359 4.31269C19.8542 3.78221 20.1772 3.28504 20.4725 2.79286C20.5332 2.68933 20.5332 2.68933 20.595 2.58371C21.1557 1.64888 21.1557 1.64888 21.8184 1.75297Z" fill="#58B23B"/>
<path d="M7.46642 1.7074C7.78614 1.76205 7.95085 1.87489 8.16168 2.10587C8.35351 2.39042 8.51889 2.68722 8.68426 2.98694C8.72902 3.06625 8.77377 3.14556 8.81988 3.22727C8.94122 3.4431 9.06158 3.65927 9.17958 3.87686C9.22038 3.95029 9.26118 4.02371 9.30321 4.09936C9.42796 4.36677 9.40497 4.51727 9.32499 4.79778C9.21139 4.97045 9.21139 4.97045 9.03416 5.08114C8.64022 5.13597 8.64022 5.13597 8.45251 5.08114C8.18291 4.84449 7.99873 4.6059 7.82001 4.29941C7.77264 4.21873 7.72526 4.13805 7.67644 4.05493C7.62764 3.97049 7.57883 3.88604 7.53004 3.80159C7.48043 3.71684 7.43078 3.63212 7.38107 3.54743C6.79718 2.54833 6.79718 2.54833 6.85295 2.10587C7.03971 1.84672 7.14542 1.76426 7.46642 1.7074Z" fill="#58B23B"/>
<path d="M26.468 13.8376C26.5336 13.8371 26.5992 13.8367 26.6667 13.8362C26.8052 13.8357 26.9437 13.8359 27.0822 13.8369C27.2939 13.8378 27.5053 13.8354 27.7169 13.8327C27.8516 13.8326 27.9864 13.8327 28.1211 13.8331C28.1842 13.8321 28.2473 13.8312 28.3123 13.8302C28.6331 13.8351 28.7637 13.846 29.0236 14.051C29.2374 14.3364 29.2127 14.4618 29.1629 14.8111C29.0047 15.0241 28.913 15.0859 28.6612 15.1699C28.4592 15.1786 28.259 15.1834 28.057 15.1845C27.968 15.1851 27.968 15.1851 27.8773 15.1857C27.7518 15.1864 27.6264 15.1869 27.5009 15.1872C27.3095 15.1878 27.1181 15.1901 26.9267 15.1923C26.8047 15.1928 26.6827 15.1932 26.5607 15.1935C26.5037 15.1943 26.4466 15.1952 26.3878 15.1961C26.058 15.1948 25.8492 15.165 25.5791 14.9546C25.4285 14.7627 25.4359 14.6645 25.4447 14.4164C25.5903 13.8332 25.9423 13.8346 26.468 13.8376Z" fill="#58B23B"/>
<path d="M1.02491 13.8326C1.0875 13.8324 1.15008 13.8323 1.21457 13.8321C1.34653 13.8322 1.47849 13.8331 1.61044 13.8349C1.81239 13.8374 2.01413 13.8364 2.21609 13.835C2.34447 13.8355 2.47284 13.8362 2.60122 13.8371C2.69168 13.8366 2.69168 13.8366 2.78397 13.836C3.19975 13.8444 3.19975 13.8444 3.41672 14.0082C3.55967 14.2304 3.58115 14.3998 3.58561 14.6663C3.50576 14.8646 3.44033 14.9804 3.27255 15.1049C3.02672 15.1989 2.78271 15.19 2.52433 15.1897C2.46787 15.19 2.41142 15.1903 2.35326 15.1906C2.23405 15.191 2.11484 15.191 1.99564 15.1907C1.81367 15.1905 1.63178 15.1922 1.44983 15.194C1.33382 15.1942 1.21781 15.1942 1.10181 15.1941C1.02052 15.1951 1.02052 15.1951 0.937591 15.1961C0.544569 15.1927 0.315965 15.1081 0.0314436 14.8097C-0.0229463 14.3125 -0.0229463 14.3125 0.163971 14.05C0.452751 13.8122 0.667571 13.827 1.02491 13.8326Z" fill="#58B23B"/>
<path d="M14.7938 0.0226664C14.9687 0.150806 15.0557 0.2475 15.1535 0.433775C15.1741 0.821094 15.1761 1.20849 15.1787 1.59626C15.1799 1.72592 15.1819 1.85558 15.1846 1.98522C15.1886 2.17228 15.1901 2.35923 15.1912 2.54633C15.1928 2.60408 15.1945 2.66183 15.1961 2.72133C15.195 3.02131 15.1842 3.13756 14.9823 3.38077C14.7811 3.52627 14.6858 3.58561 14.434 3.58561C14.1508 3.47984 14.0287 3.41785 13.8583 3.1745C13.8433 2.96981 13.8365 2.77168 13.8367 2.56693C13.8364 2.50721 13.8361 2.44748 13.8358 2.38594C13.8354 2.25957 13.8353 2.13321 13.8356 2.00685C13.8359 1.8139 13.8342 1.62103 13.8323 1.42809C13.8322 1.30524 13.8321 1.18239 13.8322 1.05954C13.8315 1.002 13.8309 0.944464 13.8302 0.885183C13.8328 0.564686 13.8547 0.35106 14.0742 0.0911845C14.3039 -0.0181818 14.5444 -0.0125972 14.7938 0.0226664Z" fill="#58B23B"/>
</svg>
