<svg width="29" height="49" viewBox="0 0 29 49" fill="none" xmlns="http://www.w3.org/2000/svg">
<path d="M24.7812 0.25L24.9727 0.254883C26.9427 0.354945 28.5145 1.989 28.5146 3.9834V44.4199L28.5098 44.6123C28.4058 46.5816 26.7721 48.1532 24.7812 48.1533H3.9834C1.92476 48.1532 0.250024 46.4786 0.25 44.4199V3.9834C0.25016 1.92485 1.92485 0.25016 3.9834 0.25H24.7812ZM3.9834 1.87012C2.81917 1.87028 1.87028 2.81917 1.87012 3.9834V44.4199C1.87014 45.5843 2.81909 46.534 3.9834 46.5342H24.7812C25.9456 46.5341 26.8955 45.5843 26.8955 44.4199V3.9834C26.8953 2.81914 25.9455 1.87022 24.7812 1.87012H3.9834Z" fill="#184E9E" stroke="#184E9E" stroke-width="0.5"/>
<path fill-rule="evenodd" clip-rule="evenodd" d="M27.701 7.0242H1.05953C0.321545 7.0242 0.321545 5.9043 1.05953 5.9043H27.7047C28.4413 5.9043 28.444 7.0242 27.7008 7.0242H27.701Z" fill="#184E9E"/>
<path d="M27.7049 40.6355C27.9576 40.6356 28.1651 40.7343 28.3065 40.8953C28.4436 41.0515 28.5066 41.2527 28.5067 41.4451C28.5066 41.6377 28.4435 41.8394 28.3055 41.9958C28.181 42.1369 28.0058 42.2297 27.7938 42.2507L27.701 42.2556H1.05939C0.806199 42.2556 0.59838 42.1561 0.456848 41.9949C0.319729 41.8385 0.256653 41.6373 0.256653 41.4451C0.256736 41.2528 0.319627 41.0516 0.456848 40.8953C0.598377 40.7341 0.806259 40.6355 1.05939 40.6355H27.7049Z" fill="#184E9E" stroke="#184E9E" stroke-width="0.5"/>
<path d="M6.43488 2.935C6.65776 2.94125 6.86897 2.95257 7.07843 2.95258C7.33169 2.95258 7.53927 3.05119 7.68097 3.21234C7.81844 3.36876 7.88214 3.56969 7.88214 3.76215C7.88213 3.9546 7.81843 4.15554 7.68097 4.31195C7.53927 4.47308 7.33167 4.57172 7.07843 4.57172C6.86894 4.57172 6.65778 4.58307 6.43488 4.58929C6.21965 4.5953 5.9975 4.59668 5.79816 4.57074C5.60238 4.54525 5.39601 4.48983 5.23566 4.35883C5.06192 4.21675 4.97395 4.01233 4.97394 3.76215C4.97394 3.51192 5.06191 3.30758 5.23566 3.16547C5.39602 3.0344 5.60236 2.97903 5.79816 2.95355C5.9975 2.92763 6.21966 2.92897 6.43488 2.935Z" fill="#184E9E" stroke="#184E9E" stroke-width="0.5"/>
<path d="M16.7756 2.9523C17.0285 2.95234 17.2357 3.05116 17.3772 3.21207C17.5144 3.36835 17.5779 3.56969 17.5784 3.76187C17.5787 3.95392 17.5166 4.15516 17.3801 4.31168C17.2393 4.47304 17.0321 4.57237 16.7795 4.57242H11.9817C11.7284 4.57242 11.5199 4.47291 11.3782 4.31168C11.2409 4.15531 11.178 3.95417 11.178 3.76187C11.178 3.56953 11.2408 3.36841 11.3782 3.21207C11.5199 3.05083 11.7284 2.9523 11.9817 2.9523H16.7756Z" fill="#184E9E" stroke="#184E9E" stroke-width="0.5"/>
<path d="M17.9185 43.5828C18.1711 43.5828 18.3786 43.6817 18.52 43.8425C18.6572 43.9988 18.7208 44.2 18.7212 44.3923C18.7215 44.5846 18.6591 44.7855 18.522 44.9421C18.3804 45.1037 18.172 45.2029 17.9185 45.2029H10.8423C10.5891 45.2028 10.3813 45.1034 10.2397 44.9421C10.1026 44.7857 10.0396 44.5846 10.0396 44.3923C10.0396 44.2 10.1025 43.9989 10.2397 43.8425C10.3813 43.6813 10.5892 43.5828 10.8423 43.5828H17.9185Z" fill="#184E9E" stroke="#184E9E" stroke-width="0.5"/>
<path fill-rule="evenodd" clip-rule="evenodd" d="M9.88122 36.6863C9.38764 36.6863 9.02434 36.1858 9.16281 35.6922L12.0212 25.4498L8.71502 25.1038C8.13248 25.0443 7.83246 24.3329 8.19948 23.8506L17.5302 11.3555C18.0278 10.6904 19.0667 11.2191 18.8475 12.0471L16.3067 21.4198H20.8624C21.5067 21.4198 21.8335 22.1988 21.4352 22.6947L10.4593 36.4055C10.3082 36.5894 10.0949 36.6867 9.88122 36.6867V36.6863ZM10.2092 23.6942L13.0675 23.9965C13.532 24.044 13.8447 24.5222 13.7133 24.9906L11.6046 32.5428L19.2636 22.9754H15.3169C14.8114 22.9754 14.4615 22.4734 14.5933 21.9868L16.3636 15.472L10.2095 23.6942H10.2092Z" fill="#58B23B"/>
</svg>
